PathFileType	4	(X/Y/Z)	C:/Users/opensim2020/Desktop/walking_exp_matlab/subject03_walking12_straight_02.trc	
DataRate	CameraRate	NumFrames	NumMarkers	Units	OrigDataRate	OrigDataStartFrame	OrigNumFrames	
100.00	100.00	6	48	mm	100.00	1171	187	
Frame#	Time	LFHD			RFHD			LBHD			RBHD			C7			T10			CLAV			STRN			RBAK			LSHO			LUPA			LELB			LFRM			LWRA			LWRB			LFIN			RSHO			RUPA			RELB			RFRM			RWRA			RWRB			RFIN			LASI			RASI			LPSI			RPSI			LTHI			LKNE			LTIB			LANK			LHEE			LTOE			RTHI			RKNE			RTIB			RANK			RHEE			RTOE			*39			*40			*41			*42			*43			*44			*45			*46			*47			
		X1	Y1	Z1	X2	Y2	Z2	X3	Y3	Z3	X4	Y4	Z4	X5	Y5	Z5	X6	Y6	Z6	X7	Y7	Z7	X8	Y8	Z8	X9	Y9	Z9	X10	Y10	Z10	X11	Y11	Z11	X12	Y12	Z12	X13	Y13	Z13	X14	Y14	Z14	X15	Y15	Z15	X16	Y16	Z16	X17	Y17	Z17	X18	Y18	Z18	X19	Y19	Z19	X20	Y20	Z20	X21	Y21	Z21	X22	Y22	Z22	X23	Y23	Z23	X24	Y24	Z24	X25	Y25	Z25	X26	Y26	Z26	X27	Y27	Z27	X28	Y28	Z28	X29	Y29	Z29	X30	Y30	Z30	X31	Y31	Z31	X32	Y32	Z32	X33	Y33	Z33	X34	Y34	Z34	X35	Y35	Z35	X36	Y36	Z36	X37	Y37	Z37	X38	Y38	Z38	X39	Y39	Z39	X40	Y40	Z40	X41	Y41	Z41	X42	Y42	Z42	X43	Y43	Z43	X44	Y44	Z44	X45	Y45	Z45	X46	Y46	Z46	X47	Y47	Z47	X48	Y48	Z48	

71	0.700	1484.46521	434.08084	1604.31726	1353.21289	454.71567	1609.87744	1497.35742	560.05811	1556.35669	1367.93103	575.25458	1561.96021	1436.10083	595.56329	1397.19641	1439.90039	624.76227	1083.73987	1427.15955	472.34766	1322.00244	1428.25964	427.78186	1157.27271	1342.18689	653.31531	1221.09985	1587.14514	512.44507	1356.97473	1653.98730	547.98602	1159.90186	1664.49829	560.60297	1036.79517	1667.23633	567.61938	906.05872	1639.74731	587.68469	784.86566	1692.98755	602.89990	799.07935	1678.73047	643.64551	720.32593	1271.62183	532.35858	1349.03748	1194.46680	494.40283	1135.13184	1180.82959	446.64636	1034.15173	1184.64417	370.48566	921.74701	1224.15540	297.58511	858.39752	1185.11194	324.33038	833.12408	1193.24695	264.63599	791.09302	1539.76208	438.55029	926.98193	1303.67896	476.05499	917.32446	1518.70862	607.28845	940.44922	1370.09058	627.66998	948.80573	1596.08008	411.58908	634.03870	1550.08826	349.33276	475.51245	1553.58716	349.60010	276.64508	1520.93127	317.98694	69.84824	1484.41943	356.55911	33.53428	1486.84509	168.94186	42.71942	1272.70300	586.60748	634.42908	1304.90869	616.50769	456.05615	1310.05737	747.78040	308.85446	1364.07373	877.34900	137.13129	1417.54810	926.94629	132.08769	1378.91382	772.41589	35.09572	1447.50415	525.14453	1664.28491																								 
72	0.710	1485.26648	420.23706	1605.53870	1354.09387	441.08871	1611.06799	1498.43518	546.12030	1557.70398	1368.78259	561.54028	1563.19336	1437.59399	581.12720	1398.08569	1440.27783	609.68048	1084.29834	1428.00415	458.01376	1323.37488	1428.85339	412.76358	1159.01965	1343.82043	638.74402	1221.32727	1588.20374	497.23953	1357.99951	1655.32349	532.83441	1161.05151	1665.86804	545.89038	1037.87061	1668.71545	553.67371	907.23553	1641.24634	575.17126	786.10199	1694.92639	589.33795	800.37146	1680.16113	633.42133	722.99969	1272.55542	518.94678	1350.21777	1195.99707	482.11761	1135.63220	1182.33484	434.83322	1034.37952	1185.93054	359.38303	921.44537	1224.92847	286.38174	857.89746	1186.31006	313.80627	832.56384	1193.95911	254.28624	790.18445	1540.41113	422.45926	928.91699	1304.86230	459.82214	917.15887	1519.34314	591.30969	942.48950	1370.29749	611.36438	949.31860	1596.46472	396.91147	636.06458	1550.74719	334.51746	477.21054	1555.23486	338.35712	277.82794	1520.77271	314.27277	69.62324	1484.94116	354.93878	34.70857	1489.48010	165.27922	40.74817	1272.95752	569.04907	633.71954	1303.70984	597.44696	455.16684	1309.87317	733.54926	311.92596	1363.60547	868.68634	145.06210	1417.85803	917.03723	142.90227	1379.10925	771.02795	35.07100	1439.17041	509.21631	1660.69360																								 
73	0.720	1486.10706	406.39740	1606.88098	1354.95947	427.41199	1612.34961	1499.56787	532.27325	1559.07581	1369.85742	547.86914	1564.55737	1438.90234	566.64844	1399.23425	1441.00330	594.54803	1085.12805	1428.77405	443.64175	1324.84375	1429.38867	397.83112	1160.57166	1345.34949	624.24890	1222.02063	1589.11914	482.14267	1359.35010	1656.43469	517.15375	1162.36157	1667.03088	530.49957	1039.28345	1670.19312	538.86560	908.72980	1642.80261	561.01343	787.70422	1696.88220	574.80072	801.98853	1681.81775	621.34943	725.74921	1273.57849	505.40094	1351.68799	1197.50146	469.91302	1136.37170	1183.92590	423.29153	1034.76868	1187.22229	348.70624	921.15393	1225.84814	275.96207	857.15472	1187.48779	303.96716	831.85040	1194.79614	244.72037	788.89594	1540.98010	406.69485	931.11340	1306.23901	443.63571	917.48450	1519.84473	575.52264	944.65881	1370.58167	595.33862	949.92151	1597.16528	383.03738	637.83374	1550.92810	319.67484	478.66550	1556.73877	328.55554	278.34976	1520.31372	313.20419	69.92414	1485.07251	354.25085	35.20764	1489.85474	163.57574	39.65799	1273.13672	550.63257	632.92773	1301.99805	576.70093	454.05356	1308.79065	717.76312	315.35992	1363.53333	857.60950	153.45505	1418.65857	904.43884	154.45819	1379.44067	769.34436	35.26264	1449.48035	497.48849	1666.93494																								 
74	0.730	1486.95142	392.55856	1608.33350	1355.75671	413.80389	1613.77356	1500.56177	518.44373	1560.50427	1370.90063	534.22473	1565.91907	1440.14734	552.39374	1400.60120	1441.84973	579.58813	1086.19373	1429.50134	429.43985	1326.46509	1430.02625	382.94525	1162.59656	1346.48743	609.71289	1222.98340	1589.99890	467.14987	1361.05432	1657.48230	500.97784	1163.88806	1668.10254	514.74890	1040.93066	1671.65295	523.29657	910.43219	1644.84973	546.12170	789.28778	1698.82153	559.29077	803.78491	1683.77393	607.49774	728.26263	1274.58960	491.81668	1353.29285	1198.98975	457.62421	1137.38049	1185.50500	411.95453	1035.36035	1188.52161	338.48203	920.92542	1226.52124	265.89151	856.18097	1188.69495	294.53207	831.08313	1195.56580	235.93144	787.43469	1541.69299	391.38727	933.43982	1307.83044	427.60446	918.38159	1520.30725	560.03363	946.88281	1370.81567	579.58331	950.68701	1597.99756	369.22900	639.40869	1550.88025	306.17178	479.66702	1558.18286	320.03342	278.87796	1520.08618	311.61081	70.00952	1485.45264	353.85422	35.42781	1488.09705	162.53456	38.60621	1273.43433	531.34973	632.08160	1300.03589	554.24542	452.75919	1307.77173	699.70593	318.68649	1363.44531	844.08594	161.72116	1419.52271	888.95691	166.14139	1380.10986	767.28394	35.37027	1450.41907	483.57208	1668.33203																								 
75	0.740	1487.70483	378.88815	1609.75903	1356.59033	400.15289	1615.22925	1501.11279	504.45734	1561.90686	1372.02429	520.62451	1567.36267	1441.38989	538.42151	1401.89746	1442.67505	564.83392	1087.36169	1430.24402	415.18353	1328.08435	1430.63037	368.19159	1164.31262	1347.49194	595.31604	1224.09863	1590.75061	452.14355	1362.80920	1658.54150	484.54614	1165.62561	1669.21155	498.34821	1042.67322	1673.16211	506.96466	912.25690	1646.65210	529.84650	790.99207	1700.71387	542.65247	805.63892	1685.43518	592.12433	730.47656	1275.62280	478.13666	1354.93335	1200.45178	445.33640	1138.43945	1187.08838	400.72235	1036.04102	1189.85999	328.56049	920.67841	1227.29346	256.64432	854.97766	1189.88293	285.73230	830.22156	1196.52295	227.71681	785.83899	1542.63635	376.36841	935.75348	1309.42297	412.04260	919.57202	1520.69458	544.95673	949.02496	1371.20679	564.20715	951.51862	1598.50122	354.82925	640.97552	1550.56714	293.61008	480.13788	1558.10107	312.74582	279.31796	1520.17712	311.13071	70.71563	1485.60742	353.85965	35.90855	1488.36133	161.52921	37.86796	1273.17285	511.58829	631.19147	1298.40674	530.40350	451.35507	1306.84167	679.33875	321.59396	1362.65125	827.74121	169.16476	1419.90955	870.81360	177.96475	1381.21118	765.32782	35.54332	1442.20959	467.48932	1664.92566																								 
76	0.750	1488.44849	365.14658	1611.05371	1357.30566	386.61066	1616.51917	1502.33167	490.95142	1563.36133	1372.85596	506.94397	1568.70447	1442.43579	524.42560	1402.97009	1443.69238	550.20728	1088.57556	1430.87708	400.99103	1329.60547	1431.20520	353.54581	1166.04932	1348.34961	580.94342	1225.20996	1591.36670	437.11594	1364.65271	1659.62097	467.99191	1167.39075	1670.38550	481.56998	1044.50195	1674.52576	489.78348	914.02600	1648.34253	512.30713	792.65393	1702.44385	524.91205	807.32208	1687.93066	574.41772	732.16638	1276.58594	464.62671	1356.55420	1201.80017	433.02066	1139.62476	1188.61401	389.56815	1036.66992	1191.06506	319.00409	920.31610	1228.39587	247.40944	853.87683	1191.09729	277.47491	829.23438	1197.40027	220.07785	783.81567	1543.74329	361.67618	937.98773	1310.87671	396.83142	920.97333	1520.97131	530.26941	951.02118	1371.64209	549.34692	952.44867	1598.50012	340.26425	642.59845	1550.54358	283.72549	479.78354	1557.63586	306.55093	279.27011	1519.89673	310.30850	70.51298	1485.62927	353.79129	35.97430	1488.21594	161.11571	37.36312	1273.33850	491.19385	629.87213	1297.56580	505.67398	449.77881	1306.09558	657.18378	324.09885	1360.95447	809.53058	175.55055	1418.91309	850.54773	189.68697	1382.63892	763.42224	36.45950	1442.94958	453.76538	1666.30615																								 
